PathFileType	4	(X/Y/Z)	./resultDataOpenSim/trcMotMarkerGrf/sub10/qtm-04-06.trc
DataRate	CameraRate	NumFrames	NumMarkers	Units	OrigDataRate	OrigDataStartFrame	OrigNumFrames
250.000000	250.000000	14	24	m	250.000000	1	497
Frame#	Time	L.Toe.Tip			R.Toe.Tip			L.Ankle.Lat			R.Ankle.Lat			L.Ankle.Med			R.Ankle.Med			L.Heel			R.Heel			L.Knee.Lat			R.Knee.Lat			L.Knee.Med			R.Knee.Med			L.Thigh.Upper			R.Thigh.Upper			L.ASIS			R.ASIS			V.Sacral			L.Acromium			R.Acromium			C7			L.Elbow			R.Elbow			L.Wrist.Lat			R.Wrist.Lat
		X1	Y1	Z1	X2	Y2	Z2	X3	Y3	Z3	X4	Y4	Z4	X5	Y5	Z5	X6	Y6	Z6	X7	Y7	Z7	X8	Y8	Z8	X9	Y9	Z9	X10	Y10	Z10	X11	Y11	Z11	X12	Y12	Z12	X13	Y13	Z13	X14	Y14	Z14	X15	Y15	Z15	X16	Y16	Z16	X17	Y17	Z17	X18	Y18	Z18	X19	Y19	Z19	X20	Y20	Z20	X21	Y21	Z21	X22	Y22	Z22	X23	Y23	Z23	X24	Y24	Z24

1	0	-1.5061257	0.037612849	-0.17421405	-0.88256429	0.11322821	-5.1160064e-05	-1.6403246	0.066106033	-0.2026798	-1.0154622	0.072876962	0.023372409	-1.6240662	0.091394526	-0.12149534	-1.003763	0.1110874	-0.05550667	NaN	NaN	NaN	-1.042902	0.031391903	-0.032141524	-1.4899078	0.4272147	-0.24109856	-1.1806538	0.4409954	0.050799906	-1.4901687	0.40609358	-0.1195036	-1.1607923	0.44648857	-0.077645428	-1.3867776	0.81084358	-0.3027146	-1.3400796	0.82642115	0.078869845	-1.309928	0.91309274	-0.24339237	-1.2744331	0.92271453	0.0010727995	-1.4903334	0.92522466	-0.097302189	-1.2982784	1.3837585	-0.26715028	-1.3474428	1.3767034	0.051945873	-1.4003853	1.4170018	-0.12411717	-1.320463	1.0381082	-0.34267799	-1.5177421	1.0667493	0.072791533	-1.1156761	0.90603247	-0.29473022	-1.4240735	0.85473476	0.15784979
2	0.004	-1.5060498	0.037584385	-0.17419888	-0.87243808	0.11552097	-0.00099502764	-1.6378887	0.067478462	-0.20311254	-1.0052615	0.073495543	0.023952852	-1.6231733	0.091971162	-0.12134767	-0.99403215	0.11208355	-0.05485982	NaN	NaN	NaN	-1.0320558	0.031923945	-0.031050101	-1.4867627	0.42671949	-0.2409834	-1.1742624	0.4402677	0.051704474	-1.4864838	0.40553682	-0.11933459	-1.1563778	0.44480325	-0.077182436	-1.3828805	0.81013409	-0.30238305	-1.3300485	0.82534768	0.080147252	-1.3054484	0.91214821	-0.24328446	-1.268625	0.92144541	0.00091143773	-1.4849961	0.92379394	-0.096052158	-1.2934939	1.3824498	-0.26686473	-1.3427852	1.3754694	0.052296065	-1.3955991	1.4157356	-0.1238065	-1.3145627	1.0366124	-0.34199414	-1.5136304	1.065489	0.072443307	-1.108753	0.90628364	-0.29335886	-1.4219212	0.85342535	0.15803541
3	0.008	-1.505983	0.037564572	-0.17418555	-0.86257998	0.11780831	-0.0015250595	-1.6362737	0.068637099	-0.20331694	-0.99544425	0.07396979	0.024459608	-1.6223353	0.092596589	-0.12118298	-0.9846007	0.11297494	-0.054227768	NaN	NaN	NaN	-1.0216099	0.032379633	-0.030051576	-1.4835439	0.42622116	-0.24083848	-1.1680915	0.43950641	0.052480102	-1.4828263	0.40493084	-0.11913787	-1.1518661	0.44322744	-0.076710631	-1.3789383	0.80943247	-0.3020794	-1.3213524	0.82403833	0.081054223	-1.3009668	0.91116417	-0.24326061	-1.2627363	0.92014838	0.00070907486	-1.4796398	0.92240004	-0.094772255	-1.2886586	1.3811415	-0.26656314	-1.3380983	1.3742364	0.05264665	-1.390805	1.4144951	-0.12352247	-1.3086681	1.035141	-0.34129419	-1.5093505	1.0639244	0.071798972	-1.1019056	0.90652766	-0.29201521	-1.4192198	0.85224501	0.15832923
4	0.012	-1.5059244	0.037557639	-0.17417844	-0.85321281	0.12009366	-0.0015155135	-1.6355431	0.069582372	-0.20327482	-0.98614558	0.074271188	0.024896284	-1.621572	0.093295307	-0.12101078	-0.97563763	0.11368877	-0.053623142	NaN	NaN	NaN	-1.0118142	0.032711084	-0.029193867	-1.4802053	0.42573335	-0.24066946	-1.1621277	0.43876546	0.053065662	-1.4791794	0.40428175	-0.11889774	-1.1471749	0.44182262	-0.07623944	-1.3749282	0.80872623	-0.30179266	-1.3140231	0.82250109	0.081564155	-1.2964911	0.91014073	-0.24336268	-1.2567811	0.91881688	0.0004488598	-1.4742542	0.92104632	-0.093457259	-1.283752	1.3798409	-0.26623798	-1.3333544	1.3730097	0.053009137	-1.3859802	1.4132913	-0.12324407	-1.3027766	1.0337027	-0.3405613	-1.5049244	1.0622124	0.071057604	-1.0951634	0.90674365	-0.29071683	-1.4159041	0.85121786	0.15874368
5	0.016	-1.5058618	0.037561547	-0.17418414	-0.84447002	0.12214371	-0.0011904896	-1.6352471	0.070454442	-0.20311838	-0.97737129	0.074420953	0.025309131	-1.6208368	0.094064079	-0.12086284	-0.96720353	0.11418276	-0.053053234	NaN	NaN	NaN	-1.0027729	0.032895594	-0.02847396	-1.4767406	0.42527149	-0.24050172	-1.1560588	0.43819603	0.053500515	-1.4754931	0.40363194	-0.11863054	-1.1422583	0.44061123	-0.075790418	-1.3708526	0.80800527	-0.30149558	-1.3072645	0.82091461	0.08188985	-1.2920075	0.90911229	-0.24356305	-1.2508328	0.91746169	0.00013142534	-1.4688438	0.91972119	-0.092120635	-1.2787888	1.378566	-0.26589128	-1.3285338	1.3717933	0.053391597	-1.3811097	1.4121269	-0.12292813	-1.2968977	1.0322984	-0.33978305	-1.5005273	1.0608969	0.070805201	-1.088504	0.90691931	-0.28946221	-1.4122781	0.85027904	0.15921536
6	0.02	-1.5057802	0.037571612	-0.17420809	-0.83638509	0.12350969	-0.00090147335	-1.6350076	0.071371018	-0.20296742	-0.96913808	0.074409087	0.025727576	-1.6201021	0.094883914	-0.12075289	-0.95930815	0.11442991	-0.052521365	NaN	NaN	NaN	-0.99450438	0.03292001	-0.027849749	-1.4731646	0.42483729	-0.24035313	-1.1493527	0.43796668	0.053910081	-1.471703	0.40301086	-0.11837333	-1.1370817	0.43961336	-0.075384208	-1.3667146	0.80727933	-0.30117703	-1.3004556	0.81942571	0.082214946	-1.2874555	0.90811254	-0.24379257	-1.244904	0.91609387	-0.00023753497	-1.4634064	0.91842157	-0.090766335	-1.2737824	1.3773351	-0.26552516	-1.3236027	1.370586	0.053791223	-1.37619	1.411005	-0.12255786	-1.2910484	1.0309321	-0.33896075	-1.4962449	1.0603191	0.071366623	-1.0818879	0.90706499	-0.28823451	-1.4086412	0.84934804	0.15966765
7	0.024	-1.5056749	0.037584755	-0.17424956	-0.8289472	0.12393688	-0.0008184756	-1.634683	0.072375933	-0.20287044	-0.96147326	0.074213646	0.026153174	-1.619616	0.095710151	-0.1206098	-0.95194175	0.11441256	-0.052028791	NaN	NaN	NaN	-0.9869999	0.032774855	-0.027272031	-1.4694928	0.42442283	-0.24022973	-1.1416112	0.43813078	0.054418437	-1.4677834	0.40241292	-0.11814851	-1.1316147	0.43885955	-0.075042276	-1.3625149	0.80656411	-0.30083277	-1.2934223	0.81808894	0.082598775	-1.2827859	0.90715462	-0.24400371	-1.2389376	0.91472982	-0.00063779274	-1.4579282	0.91715341	-0.089381438	-1.2687326	1.3761579	-0.26514126	-1.318534	1.3693926	0.054204364	-1.3712279	1.4099305	-0.12215026	-1.2852504	1.0296207	-0.33812538	-1.4919985	1.0602299	0.072406032	-1.0753069	0.90718965	-0.28702109	-1.4051046	0.84838292	0.16006181
8	0.028	-1.5055572	0.037599656	-0.17430197	-0.8221269	0.12351256	-0.00087908449	-1.6342624	0.073467384	-0.20282834	-0.95438699	0.073831611	0.026575558	-1.6200261	0.096456954	-0.12025149	-0.94508384	0.11412159	-0.051576439	NaN	NaN	NaN	-0.98024489	0.032456149	-0.026712459	-1.465738	0.42401466	-0.24012138	-1.1330336	0.43855294	0.05501153	-1.4637742	0.40181444	-0.11795087	-1.1258519	0.4383696	-0.074782437	-1.3582486	0.80587114	-0.30045932	-1.2862244	0.81691614	0.083020534	-1.2780046	0.9062352	-0.24419605	-1.232874	0.91339195	-0.0010367755	-1.4523926	0.91592174	-0.08795335	-1.2636332	1.3750327	-0.26474941	-1.3133414	1.3682284	0.05463422	-1.3662335	1.4089055	-0.12173297	-1.2795215	1.0283878	-0.33732423	-1.4877071	1.0600951	0.073268965	-1.0687765	0.90728886	-0.28582495	-1.4016449	0.84738453	0.16040347
9	0.032	-1.5054416	0.037615206	-0.17435951	-0.8158779	0.12244351	-0.00095783642	-1.6337738	0.074638882	-0.20283142	-0.9478803	0.073273719	0.026988655	-1.6218211	0.097064254	-0.11954309	-0.93872273	0.11355286	-0.051174198	NaN	NaN	NaN	-0.97421992	0.031967353	-0.0261515	-1.4619217	0.42360674	-0.24000437	-1.1243522	0.43900609	0.055520412	-1.4597241	0.40121077	-0.11776601	-1.1198083	0.43813741	-0.074605343	-1.3539013	0.80520743	-0.3000647	-1.2789785	0.81591179	0.083440434	-1.2731518	0.90534166	-0.24439003	-1.2266891	0.91209547	-0.0014142869	-1.4467946	0.9147291	-0.086489328	-1.258482	1.3739531	-0.26436173	-1.3080653	1.3671154	0.055087961	-1.3612102	1.4079303	-0.12131346	-1.2738596	1.0272436	-0.33657101	-1.4833843	1.0596589	0.073618245	-1.0623213	0.90736317	-0.28465731	-1.39826	0.84636752	0.16069694
10	0.036	-1.5053302	0.037630695	-0.17441992	-0.8101535	0.12088917	-0.00097402923	-1.6332359	0.075893854	-0.20288203	-0.94195871	0.072550223	0.027391512	-1.6243283	0.097639611	-0.1186827	-0.93285936	0.11270772	-0.05083676	NaN	NaN	NaN	-0.9688965	0.031314355	-0.025566255	-1.4580674	0.42321676	-0.23986587	-1.1161425	0.43934947	0.055797219	-1.4556481	0.40061513	-0.11758738	-1.1134838	0.43814233	-0.074498314	-1.3494613	0.80456334	-0.29965132	-1.271831	0.81506759	0.08382939	-1.2682615	0.90445533	-0.24459823	-1.2204031	0.91085001	-0.0017691384	-1.4411398	0.91358591	-0.085014805	-1.2532816	1.3729212	-0.26397659	-1.3027326	1.3660756	0.055569732	-1.3561493	1.4070087	-0.12086454	-1.2682347	1.0261751	-0.33581076	-1.4790326	1.0590479	0.073640336	-1.0559641	0.90742182	-0.28351936	-1.3950318	0.84534191	0.16092032
11	0.04	-1.5052059	0.037648562	-0.1744831	-0.80492867	0.11894666	-0.00090538096	-1.632643	0.077236209	-0.20299734	-0.9366249	0.071670067	0.027778428	-1.6259184	0.098435745	-0.11814625	-0.92749339	0.11160271	-0.050569198	NaN	NaN	NaN	-0.96423785	0.030500368	-0.0249544	-1.4541888	0.42287032	-0.23970967	-1.108429	0.43958063	0.055844403	-1.4515543	0.4000308	-0.11741144	-1.106859	0.43836071	-0.074449608	-1.3449308	0.80391759	-0.29919703	-1.2648828	0.81437813	0.084190754	-1.2633407	0.9035648	-0.24481924	-1.2140773	0.90967076	-0.0021018321	-1.4354348	0.9125142	-0.083564304	-1.248036	1.3719564	-0.26357726	-1.2973337	1.3651169	0.056076527	-1.3510392	1.4061473	-0.12035484	-1.2626018	1.0251598	-0.33494509	-1.4745483	1.0584559	0.073726309	-1.0497068	0.90746816	-0.28239912	-1.3920316	0.84431887	0.16105629
12	0.044	-1.5050339	0.037675443	-0.1745557	-0.80019756	0.11667539	-0.00076806769	-1.6319818	0.078664871	-0.20319328	-0.93186377	0.070646257	0.028138688	-1.6256162	0.099614809	-0.11821971	-0.92261939	0.11027023	-0.050370761	NaN	NaN	NaN	-0.96020466	0.02953164	-0.024349528	-1.450275	0.42257423	-0.23953986	-1.1009315	0.43976187	0.055761801	-1.4474492	0.39945554	-0.11723372	-1.0999237	0.43876308	-0.074449251	-1.3403269	0.80327325	-0.29868226	-1.2580453	0.81387525	0.084577269	-1.2583737	0.90267622	-0.24504028	-1.2077717	0.90857649	-0.0024040078	-1.4296924	0.91153393	-0.082179404	-1.2427501	1.3710827	-0.26314486	-1.2918423	1.3642327	0.056601338	-1.3458767	1.4053498	-0.11978343	-1.256938	1.024188	-0.3339177	-1.4698143	1.057943	0.074077979	-1.0435344	0.90750226	-0.28128884	-1.3891672	0.84332167	0.16113737
13	0.048	-1.5047818	0.037716579	-0.17465213	-0.79595176	0.11411917	-0.0005799698	-1.6312573	0.08017985	-0.20346695	-0.9276483	0.069495389	0.028462639	-1.6237934	0.10113112	-0.11878089	-0.91823037	0.10874121	-0.050241404	NaN	NaN	NaN	-0.95675378	0.028426975	-0.02379519	-1.4462855	0.42231867	-0.23936136	-1.093412	0.43995048	0.055645587	-1.4433072	0.3989006	-0.11705918	-1.0926908	0.43931125	-0.074486787	-1.3356705	0.80266764	-0.29812444	-1.2511561	0.81359311	0.085043168	-1.2533383	0.90180497	-0.24524171	-1.2014994	0.90758414	-0.0026622553	-1.4239353	0.91065428	-0.080893985	-1.2374263	1.37031	-0.26266923	-1.286262	1.36342	0.057140841	-1.3406669	1.4046154	-0.11917475	-1.251272	1.0232779	-0.33278422	-1.4648142	1.0574683	0.07460499	-1.0374434	0.90753221	-0.28019471	-1.3862175	0.84237472	0.16122692
14	0.052	-1.5044794	0.03776763	-0.17476966	-0.79217255	0.1113195	-0.00034475682	-1.6304854	0.081789887	-0.20380005	-0.92394965	0.068233647	0.028743517	-1.6213092	0.10284413	-0.11954071	-0.9143128	0.10703789	-0.05017419	NaN	NaN	NaN	-0.95383432	0.027213426	-0.023312679	-1.4421794	0.42209031	-0.23918142	-1.0858322	0.44016625	0.055537867	-1.4390796	0.39838739	-0.11689997	-1.0851913	0.43996379	-0.074557719	-1.33096	0.80212915	-0.29754964	-1.2442904	0.81349347	0.085568765	-1.2482149	0.90096493	-0.24540369	-1.1952357	0.90670837	-0.0028640368	-1.4181775	0.90987891	-0.079712742	-1.2320611	1.3696335	-0.26214991	-1.2806446	1.3626848	0.057699401	-1.335415	1.4039421	-0.1185527	-1.2456669	1.0224647	-0.3316666	-1.4595964	1.0569773	0.075114298	-1.0314466	0.90756591	-0.27912404	-1.383053	0.84148655	0.16135588
